<svg width="1025" height="1024" xmlns="http://www.w3.org/2000/svg" xml:space="preserve" enable-background="new 0 0 1025 1024" version="1.1">

 <g>
  <title>Layer 1</title>
  <g id="svg_1">
   <path id="svg_2" d="m221.686,946.17501l580.648,0c101.908,0 184.812,-82.903 184.812,-184.812l0,-650.77c0,-18.022 -14.746,-32.768 -32.768,-32.768l-884.735,0c-18.022,0 -32.768,14.746 -32.768,32.768l0,650.77c0,101.908 82.903,184.812 184.811,184.812zm-119.275,-802.813l819.199,0l0,618.002c0,65.7 -53.576,119.276 -119.276,119.276l-580.648,0c-65.7,0 -119.276,-53.576 -119.276,-119.276l0,-618.002l0.001,0z"/>
   <path id="svg_3" d="m512.01,618.50601c108.462,0 196.608,-87.326 196.608,-194.641l0,-100.27c0,-18.022 -14.746,-32.768 -32.768,-32.768s-32.768,14.746 -32.768,32.768l0,100.27c0,71.107 -58.819,129.106 -131.072,129.106c-72.256,0 -131.074,-57.999 -131.074,-129.106l0,-100.27c0,-18.022 -14.746,-32.768 -32.768,-32.768s-32.768,14.746 -32.768,32.768l0,100.27c0,107.315 88.146,194.641 196.61,194.641z"/>
  </g>
 </g>
</svg>