<?xml version="1.0" encoding="utf-8"?>
<!-- Generator: Adobe Illustrator 17.0.0, SVG Export Plug-In . SVG Version: 6.00 Build 0)  -->
<!DOCTYPE svg PUBLIC "-//W3C//DTD SVG 1.1//EN" "http://www.w3.org/Graphics/SVG/1.1/DTD/svg11.dtd">
<svg version="1.1" id="Layer_1" xmlns="http://www.w3.org/2000/svg" xmlns:xlink="http://www.w3.org/1999/xlink" x="0px" y="0px"
	 width="1025px" height="1024px" viewBox="0 0 1025 1024" enable-background="new 0 0 1025 1024" xml:space="preserve">
<g><path d="M858.595 599.21c-1.718 1.722-3.76 3.085-6.010 4.016-2.246 0.931-4.656 1.411-7.088 1.411s-4.842-0.48-7.088-1.411c-2.25-0.931-4.291-2.294-6.010-4.016l-116.589-116.589v362.864c0 4.912-1.952 9.626-5.427 13.098-3.475 3.475-8.186 5.427-13.101 5.427-4.912 0-9.626-1.952-13.098-5.427-3.475-3.472-5.427-8.186-5.427-13.098v-362.864l-116.589 116.589c-3.494 3.373-8.173 5.242-13.030 5.2s-9.504-1.99-12.941-5.427c-3.434-3.434-5.382-8.080-5.424-12.938s1.824-9.539 5.2-13.034l148.211-148.211c1.722-1.722 3.763-3.085 6.010-4.016 2.25-0.931 4.656-1.411 7.091-1.411 2.432 0 4.842 0.48 7.088 1.411s4.288 2.294 6.010 4.016l148.211 148.211c1.722 1.722 3.085 3.763 4.019 6.010 0.931 2.25 1.408 4.659 1.408 7.091s-0.477 4.842-1.408 7.088c-0.934 2.25-2.298 4.291-4.019 6.010zM165.443 450.998l148.212 148.211c1.72 1.722 3.762 3.085 6.009 4.016 2.249 0.931 4.655 1.411 7.091 1.411 2.432 0 4.842-0.48 7.088-1.411s4.288-2.294 6.010-4.016l148.211-148.211c3.376-3.494 5.242-8.176 5.2-13.034s-1.99-9.504-5.424-12.938c-3.437-3.437-8.083-5.382-12.941-5.427-4.858-0.042-9.536 1.827-13.030 5.2l-116.589 116.589v-362.862c0-4.914-1.952-9.626-5.427-13.1s-8.186-5.426-13.101-5.426c-4.912 0-9.625 1.952-13.099 5.426s-5.427 8.187-5.427 13.1v362.862l-116.587-116.589c-3.494-3.376-8.174-5.242-13.032-5.2s-9.504 1.99-12.939 5.424c-3.435 3.437-5.383 8.083-5.426 12.941s1.825 9.536 5.2 13.030v0.003z"></path></g>
</svg>
