<?xml version="1.0" encoding="utf-8"?>
<!-- Generator: Adobe Illustrator 17.0.0, SVG Export Plug-In . SVG Version: 6.00 Build 0)  -->
<!DOCTYPE svg PUBLIC "-//W3C//DTD SVG 1.1//EN" "http://www.w3.org/Graphics/SVG/1.1/DTD/svg11.dtd">
<svg version="1.1" id="Layer_1" xmlns="http://www.w3.org/2000/svg" xmlns:xlink="http://www.w3.org/1999/xlink" x="0px" y="0px"
	 width="1025px" height="1024px" viewBox="0 0 1025 1024" enable-background="new 0 0 1025 1024" xml:space="preserve">
<g><path d="M588.221 512.083l419.993-419.995c21.052-21.048 21.052-55.172 0-76.218-21.043-21.048-55.168-21.048-76.22 0l-419.994 419.995-419.995-419.995c-21.048-21.048-55.172-21.048-76.218 0s-21.048 55.172 0 76.218l419.995 419.995-419.995 419.996c-21.048 21.052-21.048 55.168 0 76.22 21.048 21.043 55.172 21.043 76.218 0l419.995-419.998 419.994 419.998c21.043 21.043 55.177 21.043 76.22 0 21.043-21.052 21.043-55.177 0-76.22l-419.993-419.996z"></path></g>
</svg>
