<?xml version="1.0" encoding="utf-8"?>
<!-- Generator: Adobe Illustrator 17.0.0, SVG Export Plug-In . SVG Version: 6.00 Build 0)  -->
<!DOCTYPE svg PUBLIC "-//W3C//DTD SVG 1.1//EN" "http://www.w3.org/Graphics/SVG/1.1/DTD/svg11.dtd">
<svg version="1.1" id="Layer_1" xmlns="http://www.w3.org/2000/svg" xmlns:xlink="http://www.w3.org/1999/xlink" x="0px" y="0px"
	 width="1025px" height="1024px" viewBox="0 0 1025 1024" enable-background="new 0 0 1025 1024" xml:space="preserve">
<g><path d="M197.88 614.326l288.655 296.997c5.511 5.66 13.107 8.937 21.15 9.086 1.489 0 2.979-0.149 4.468-0.298 1.341 0.149 2.83 0.298 4.17 0.298h0.298c7.894 0 15.49-3.277 21.15-9.086l288.209-296.699 106.645-106.646c92.346-92.346 92.346-242.632 0-334.978-44.684-44.684-104.262-69.409-167.415-69.409-63.302 0-122.731 24.576-167.415 69.409l-85.793 85.644-85.643-85.644c-44.684-44.684-104.262-69.409-167.415-69.409-63.302 0-122.731 24.576-167.414 69.409-92.346 92.346-92.346 242.632 0 334.978l106.347 106.348zM133.535 215.151c34.555-34.555 79.983-51.833 125.412-51.833s90.857 17.278 125.413 51.833l106.644 106.645c11.618 11.618 30.534 11.618 42.152 0l106.645-106.645c69.111-69.111 181.565-69.111 250.675 0s69.111 181.565 0 250.675l-106.943 106.943-271.528 279.422-271.676-279.72-106.645-106.645c-69.26-69.111-69.26-181.565-0.149-250.675z"></path></g>
</svg>
