<?xml version="1.0" encoding="utf-8"?>
<!-- Generator: Adobe Illustrator 17.0.0, SVG Export Plug-In . SVG Version: 6.00 Build 0)  -->
<!DOCTYPE svg PUBLIC "-//W3C//DTD SVG 1.1//EN" "http://www.w3.org/Graphics/SVG/1.1/DTD/svg11.dtd">
<svg version="1.1" id="Layer_1" xmlns="http://www.w3.org/2000/svg" xmlns:xlink="http://www.w3.org/1999/xlink" x="0px" y="0px"
	 width="1025px" height="1024px" viewBox="0 0 1025 1024" enable-background="new 0 0 1025 1024" xml:space="preserve">
<g><path d="M744.581 1023.99c-7.168 0-14.505-0.896-21.76-2.816l-659.756-176.681c-45.227-12.462-72.192-59.31-60.331-104.535l83.243-310.273c3.072-11.392 14.762-18.005 26.112-15.104 11.392 3.030 18.134 14.763 15.104 26.112l-83.2 310.185c-5.931 22.615 7.638 46.167 30.294 52.439l659.496 176.599c22.661 5.97 46.039-7.511 51.927-30.039l33.321-123.479c3.072-11.392 14.766-18.176 26.158-15.058 11.392 3.072 18.089 14.802 15.063 26.153l-33.28 123.305c-10.030 37.975-44.59 63.191-82.391 63.191z"></path><path d="M938.732 768.015h-682.667c-47.062 0-85.334-38.272-85.334-85.33v-512.002c0-47.062 38.272-85.334 85.334-85.334h682.667c47.063 0 85.335 38.272 85.335 85.334v512.002c0 47.058-38.272 85.33-85.335 85.33zM256.065 128.017c-23.51 0-42.666 19.157-42.666 42.666v512.002c0 23.506 19.157 42.665 42.666 42.665h682.667c23.511 0 42.665-19.159 42.665-42.665v-512.002c0-23.51-19.154-42.666-42.665-42.666h-682.667z"></path><path d="M384.065 384.016c-47.062 0-85.334-38.272-85.334-85.333s38.272-85.334 85.334-85.334c47.061 0 85.333 38.272 85.333 85.334s-38.272 85.333-85.333 85.333zM384.065 256.016c-23.51 0-42.666 19.158-42.666 42.667s19.157 42.666 42.666 42.666c23.509 0 42.666-19.158 42.666-42.666s-19.158-42.667-42.666-42.667z"></path><path d="M195.038 722.36c-5.462 0-10.922-2.089-15.104-6.226-8.32-8.32-8.32-21.847 0-30.167l201.514-201.513c24.149-24.15 66.346-24.15 90.495 0l59.988 59.992 166.057-199.256c12.078-14.464 29.824-22.869 48.727-23.040h0.471c18.688 0 36.393 8.107 48.594 22.314l223.15 260.351c7.68 8.919 6.656 22.4-2.304 30.080-8.919 7.68-22.359 6.697-30.080-2.304l-223.15-260.351c-4.137-4.778-9.856-7.424-16.21-7.424-4.439-0.384-12.247 2.688-16.384 7.68l-181.033 217.215c-3.84 4.608-9.431 7.383-15.447 7.639-6.057 0.425-11.817-1.966-16.041-6.231l-76.504-76.498c-8.064-8.024-22.102-8.024-30.166 0l-201.514 201.513c-4.139 4.137-9.6 6.226-15.062 6.226z"></path></g>
</svg>
