<?xml version="1.0" encoding="utf-8"?>
<!-- Generator: Adobe Illustrator 17.0.0, SVG Export Plug-In . SVG Version: 6.00 Build 0)  -->
<!DOCTYPE svg PUBLIC "-//W3C//DTD SVG 1.1//EN" "http://www.w3.org/Graphics/SVG/1.1/DTD/svg11.dtd">
<svg version="1.1" id="Layer_1" xmlns="http://www.w3.org/2000/svg" xmlns:xlink="http://www.w3.org/1999/xlink" x="0px" y="0px"
	 width="1025px" height="1024px" viewBox="0 0 1025 1024" enable-background="new 0 0 1025 1024" xml:space="preserve">
<g><path d="M893.148 0h-762.298c-72.152 0-130.85 58.7-130.85 130.852v762.296c0 72.151 58.698 130.852 130.85 130.852h762.298c72.156 0 130.852-58.701 130.852-130.852v-762.296c0-72.152-58.696-130.852-130.852-130.852zM963.686 893.148c0 38.897-31.647 70.538-70.538 70.538h-762.298c-38.894 0-70.536-31.647-70.536-70.538v-110.013l198.51-168.899c7.244-6.164 17.812-6.226 25.124-0.154l124.348 103.255c11.99 9.958 29.59 9.139 40.608-1.889l295.457-295.908c5.34-5.35 11.566-5.87 14.817-5.704 3.241 0.166 9.39 1.322 14.157 7.192l190.351 234.378v237.742zM963.686 559.729l-143.534-176.731c-14.234-17.528-35.333-28.244-57.887-29.402-22.533-1.14-44.631 7.344-60.585 23.324l-276.017 276.443-103.18-85.678c-29.918-24.847-73.126-24.586-102.746 0.614l-159.424 135.644v-573.092c0-38.894 31.642-70.536 70.536-70.536h762.298c38.897 0 70.538 31.642 70.538 70.536v428.877z"></path></g>
</svg>
