<?xml version="1.0" encoding="utf-8"?>
<!-- Generator: Adobe Illustrator 17.0.0, SVG Export Plug-In . SVG Version: 6.00 Build 0)  -->
<!DOCTYPE svg PUBLIC "-//W3C//DTD SVG 1.1//EN" "http://www.w3.org/Graphics/SVG/1.1/DTD/svg11.dtd">
<svg version="1.1" id="Layer_1" xmlns="http://www.w3.org/2000/svg" xmlns:xlink="http://www.w3.org/1999/xlink" x="0px" y="0px"
	 width="1025px" height="1024px" viewBox="0 0 1025 1024" enable-background="new 0 0 1025 1024" xml:space="preserve">
<g><path d="M742.381 0h-256.001c-3.37-0.019-6.709 0.626-9.828 1.9s-5.956 3.151-8.348 5.524l-358.4 358.4c-2.373 2.392-4.25 5.229-5.524 8.348s-1.92 6.459-1.9 9.828v460.799c0 47.526 18.88 93.107 52.487 126.714s79.187 52.486 126.714 52.486h460.801c47.526 0 93.107-18.88 126.714-52.486s52.486-79.187 52.486-126.714v-665.599c0-47.527-18.88-93.107-52.486-126.714s-79.187-52.486-126.714-52.486zM460.78 87.297v143.104c0 16.809-3.311 33.453-9.743 48.983s-15.861 29.64-27.747 41.526c-11.886 11.886-25.996 21.315-41.526 27.747s-32.174 9.743-48.983 9.743h-143.104l271.104-271.104zM870.381 844.8c0 33.946-13.485 66.502-37.491 90.509s-56.563 37.491-90.509 37.491h-460.801c-33.948 0-66.505-13.485-90.51-37.491s-37.49-56.563-37.49-90.509v-435.199h179.2c47.526 0 93.107-18.88 126.714-52.486s52.486-79.187 52.486-126.714v-179.2h230.401c33.946 0 66.502 13.486 90.509 37.49s37.491 56.562 37.491 90.51v665.599z"></path></g>
</svg>
