<?xml version="1.0" encoding="utf-8"?>
<!-- Generator: Adobe Illustrator 17.0.0, SVG Export Plug-In . SVG Version: 6.00 Build 0)  -->
<!DOCTYPE svg PUBLIC "-//W3C//DTD SVG 1.1//EN" "http://www.w3.org/Graphics/SVG/1.1/DTD/svg11.dtd">
<svg version="1.1" id="Layer_1" xmlns="http://www.w3.org/2000/svg" xmlns:xlink="http://www.w3.org/1999/xlink" x="0px" y="0px"
	 width="1025px" height="1024px" viewBox="0 0 1025 1024" enable-background="new 0 0 1025 1024" xml:space="preserve">
<g><path d="M983.995 471.998h-695.477c-22.092 0-40 17.909-40 40.002s17.908 40.002 40 40.002h695.477c22.093 0 39.998-17.909 39.998-40.002s-17.905-40.002-39.998-40.002z"></path><path d="M983.995 172h-695.477c-22.092 0-40 17.908-40 40s17.908 40 40 40h695.477c22.093 0 39.998-17.908 39.998-40s-17.905-40-39.998-40z"></path><path d="M983.995 772.001h-695.477c-22.092 0-40 17.905-40 39.998s17.908 40.002 40 40.002h695.477c22.093 0 39.998-17.909 39.998-40.002s-17.905-39.998-39.998-39.998z"></path><path d="M54 266c29.824 0 54-24.177 54-54s-24.176-54-54-54c-29.823 0-54 24.177-54 54s24.177 54 54 54z"></path><path d="M54 566.001c29.824 0 54-24.177 54-54.001s-24.176-54.001-54-54.001c-29.823 0-54 24.177-54 54.001s24.177 54.001 54 54.001z"></path><path d="M54 866c29.824 0 54-24.177 54-54.001s-24.176-53.998-54-53.998c-29.823 0-54 24.174-54 53.998s24.177 54.001 54 54.001z"></path></g>
</svg>
