<?xml version="1.0" encoding="utf-8"?>
<!-- Generator: Adobe Illustrator 17.0.0, SVG Export Plug-In . SVG Version: 6.00 Build 0)  -->
<!DOCTYPE svg PUBLIC "-//W3C//DTD SVG 1.1//EN" "http://www.w3.org/Graphics/SVG/1.1/DTD/svg11.dtd">
<svg version="1.1" id="Layer_1" xmlns="http://www.w3.org/2000/svg" xmlns:xlink="http://www.w3.org/1999/xlink" x="0px" y="0px"
	 width="1025px" height="1024px" viewBox="0 0 1025 1024" enable-background="new 0 0 1025 1024" xml:space="preserve">
<g><path d="M826.266 797.968l-126.816-126.816c36.454-41.885 60.090-93.373 68.080-148.323 7.994-54.947 0.006-111.037-23.005-161.571s-60.077-93.381-106.771-123.428c-46.694-30.046-101.050-46.023-156.576-46.025-57.232-0-113.181 16.971-160.768 48.767s-84.676 76.99-106.578 129.866c-21.902 52.877-27.632 111.059-16.467 167.19 11.166 56.134 38.726 107.696 79.196 148.163 51.817 51.821 121.366 82.048 194.604 84.582 73.242 2.538 144.714-22.81 199.99-70.922l126.813 126.813c3.763 3.699 8.835 5.76 14.112 5.734 5.277-0.022 10.33-2.128 14.061-5.859 3.728-3.731 5.837-8.784 5.859-14.058 0.026-5.277-2.035-10.349-5.734-14.112v-0.003zM481.178 730.528c-49.318 0-97.526-14.624-138.531-42.026-41.004-27.398-72.963-66.342-91.836-111.904s-23.81-95.696-14.189-144.067c9.621-48.368 33.368-92.797 68.24-127.67 23.116-23.322 50.614-41.847 80.908-54.514 30.298-12.667 62.797-19.224 95.635-19.296s65.366 6.342 95.718 18.876c30.352 12.533 57.93 30.938 81.149 54.157 23.219 23.219 41.626 50.796 54.157 81.148 12.534 30.352 18.947 62.88 18.877 95.718-0.074 32.838-6.63 65.338-19.296 95.635-12.666 30.294-31.194 57.792-54.515 80.909-23.101 23.229-50.579 41.642-80.842 54.179-30.266 12.534-62.717 18.944-95.475 18.854zM618.192 481.178c0 5.306-2.109 10.397-5.862 14.147-3.75 3.754-8.842 5.862-14.147 5.862h-96.995v96.992c0 5.309-2.109 10.397-5.862 14.15-3.75 3.754-8.842 5.859-14.147 5.859-5.309 0-10.397-2.106-14.15-5.859s-5.859-8.842-5.859-14.15v-96.992h-96.995c-5.309 0-10.397-2.109-14.15-5.862-3.754-3.75-5.859-8.842-5.859-14.147 0-5.309 2.106-10.397 5.859-14.15s8.842-5.859 14.15-5.859h96.995v-96.995c0-5.309 2.106-10.397 5.859-14.15s8.842-5.859 14.15-5.859c5.306 0 10.397 2.106 14.147 5.859 3.754 3.754 5.862 8.842 5.862 14.15v96.995h96.995c5.306 0 10.397 2.106 14.147 5.859 3.754 3.754 5.862 8.842 5.862 14.15z"></path></g>
</svg>
