<?xml version="1.0" encoding="utf-8"?>
<!-- Generator: Adobe Illustrator 17.0.0, SVG Export Plug-In . SVG Version: 6.00 Build 0)  -->
<!DOCTYPE svg PUBLIC "-//W3C//DTD SVG 1.1//EN" "http://www.w3.org/Graphics/SVG/1.1/DTD/svg11.dtd">
<svg version="1.1" id="Layer_1" xmlns="http://www.w3.org/2000/svg" xmlns:xlink="http://www.w3.org/1999/xlink" x="0px" y="0px"
	 width="1025px" height="1024px" viewBox="0 0 1025 1024" enable-background="new 0 0 1025 1024" xml:space="preserve">
<g><path d="M465.569 92.667c0-10.787-8.737-19.524-19.522-19.524h-353.381c-10.787 0-19.524 8.737-19.524 19.524v353.381c0 10.785 8.737 19.522 19.524 19.522h353.381c10.785 0 19.522-8.737 19.522-19.522v-353.381zM426.522 426.522h-314.331v-314.331h314.331v314.331z"></path><path d="M951.713 92.667c0-10.787-8.737-19.524-19.525-19.524h-353.379c-10.785 0-19.522 8.737-19.522 19.524v353.381c0 10.785 8.737 19.522 19.522 19.522h353.379c10.789 0 19.525-8.737 19.525-19.522v-353.381zM912.666 426.522h-314.331v-314.331h314.331v314.331z"></path><path d="M465.569 578.809c0-10.789-8.737-19.525-19.522-19.525h-353.381c-10.787 0-19.524 8.737-19.524 19.525v353.379c0 10.785 8.737 19.522 19.524 19.522h353.381c10.785 0 19.522-8.737 19.522-19.522v-353.379zM426.522 910.709h-314.331v-312.379h314.331v312.379z"></path><path d="M951.713 578.809c0-10.789-8.737-19.525-19.525-19.525h-353.379c-10.785 0-19.522 8.737-19.522 19.525v353.379c0 10.785 8.737 19.522 19.522 19.522h353.379c10.789 0 19.525-8.737 19.525-19.522v-353.379zM912.666 910.709h-314.331v-312.379h314.331v312.379z"></path></g>
</svg>
