<?xml version="1.0" encoding="utf-8"?>
<!-- Generator: Adobe Illustrator 17.0.0, SVG Export Plug-In . SVG Version: 6.00 Build 0)  -->
<!DOCTYPE svg PUBLIC "-//W3C//DTD SVG 1.1//EN" "http://www.w3.org/Graphics/SVG/1.1/DTD/svg11.dtd">
<svg version="1.1" id="Layer_1" xmlns="http://www.w3.org/2000/svg" xmlns:xlink="http://www.w3.org/1999/xlink" x="0px" y="0px"
	 width="1025px" height="1024px" viewBox="0 0 1025 1024" enable-background="new 0 0 1025 1024" xml:space="preserve">
<g><path d="M491.52 736.064c61.542 0 118.067-22.016 162.202-58.47l102.4 102.4c3.994 3.994 9.216 6.042 14.438 6.042s10.445-2.048 14.438-6.042c7.987-7.987 7.987-20.992 0-28.979l-101.99-101.99c39.322-44.851 63.181-103.526 63.181-167.629 0-140.493-114.278-254.77-254.771-254.77s-254.668 114.175-254.668 254.668c0 140.493 114.277 254.771 254.77 254.771zM491.52 267.483c117.862 0 213.811 95.845 213.811 213.81s-95.949 213.811-213.811 213.811c-117.862 0-213.81-95.949-213.81-213.811s95.948-213.81 213.81-213.81z"></path></g>
</svg>
