<?xml version="1.0" encoding="utf-8"?>
<!-- Generator: Adobe Illustrator 17.0.0, SVG Export Plug-In . SVG Version: 6.00 Build 0)  -->
<!DOCTYPE svg PUBLIC "-//W3C//DTD SVG 1.1//EN" "http://www.w3.org/Graphics/SVG/1.1/DTD/svg11.dtd">
<svg version="1.1" id="Layer_1" xmlns="http://www.w3.org/2000/svg" xmlns:xlink="http://www.w3.org/1999/xlink" x="0px" y="0px"
	 width="1025px" height="1024px" viewBox="0 0 1025 1024" enable-background="new 0 0 1025 1024" xml:space="preserve">
<g><path d="M250.983 808.966h521.932c5.53 0 10.752-2.253 14.643-6.144s5.939-9.216 5.837-14.746c-2.458-124.621-87.552-230.298-201.933-264.397 38.502-25.702 63.898-69.53 63.898-119.194 0-79.053-64.307-143.361-143.36-143.361s-143.36 64.308-143.36 143.361c0 49.664 25.395 93.491 63.795 119.194-114.38 34.202-199.474 139.776-201.932 264.397-0.102 5.53 2.048 10.854 5.837 14.746s9.216 6.144 14.643 6.144zM409.6 404.486c0-56.422 45.978-102.401 102.4-102.401s102.4 45.979 102.4 102.401c0 56.422-45.978 102.4-102.4 102.4s-102.4-45.978-102.4-102.4zM512 552.966c123.085 0 226.304 94.72 239.206 215.040h-478.412c12.902-120.32 116.121-215.040 239.205-215.040z"></path></g>
</svg>
