<?xml version="1.0" encoding="utf-8"?>
<!-- Generator: Adobe Illustrator 17.0.0, SVG Export Plug-In . SVG Version: 6.00 Build 0)  -->
<!DOCTYPE svg PUBLIC "-//W3C//DTD SVG 1.1//EN" "http://www.w3.org/Graphics/SVG/1.1/DTD/svg11.dtd">
<svg version="1.1" id="Layer_1" xmlns="http://www.w3.org/2000/svg" xmlns:xlink="http://www.w3.org/1999/xlink" x="0px" y="0px"
	 width="1025px" height="1024px" viewBox="0 0 1025 1024" enable-background="new 0 0 1025 1024" xml:space="preserve">
<g><path d="M845.763 996.797h-667.523c-38.789-0.169-75.936-15.672-103.334-43.131s-42.822-64.64-42.906-103.429v-495.359c0.16-26.259 7.373-51.993 20.883-74.51s32.823-40.991 55.917-53.49l333.12-182.080c21.454-11.679 45.493-17.798 69.92-17.798 24.429 0 48.467 6.119 69.92 17.798l334.080 181.12c23.096 12.498 42.409 30.972 55.916 53.49 13.512 22.518 20.726 48.251 20.884 74.51v496.319c-0.087 38.902-15.596 76.175-43.131 103.654-27.54 27.474-64.85 42.906-103.747 42.906zM512 90.878c-13.741-0.020-27.27 3.389-39.36 9.92l-334.080 181.44c-12.958 7.177-23.747 17.707-31.235 30.488s-11.4 27.34-11.325 42.152v495.359c0 21.898 8.698 42.895 24.181 58.378s36.483 24.182 58.379 24.182h667.203c21.837-0.082 42.757-8.822 58.168-24.294 15.416-15.473 24.069-36.424 24.069-58.266v-495.359c0.010-14.877-3.994-29.48-11.602-42.267-7.603-12.786-18.519-23.281-31.601-30.373l-333.44-181.12c-12.058-6.642-25.59-10.162-39.357-10.24z"></path><path d="M511.992 856.33c-44.542 0.005-87.702-15.473-122.086-43.786s-57.857-67.702-66.394-111.416c-0.696-4.588-0.387-9.267 0.907-13.722s3.539-8.576 6.583-12.078c3.044-3.502 6.813-6.298 11.045-8.197s8.826-2.857 13.465-2.801c7.624-0.113 15.036 2.504 20.903 7.373s9.802 11.674 11.097 19.185c6.027 28.764 21.769 54.579 44.582 73.108s51.308 28.646 80.699 28.646c29.389 0 57.882-10.117 80.696-28.646s38.554-44.344 44.585-73.108c1.295-7.511 5.228-14.316 11.095-19.185s13.281-7.485 20.905-7.373c4.634-0.056 9.231 0.901 13.46 2.801 4.234 1.9 8.003 4.695 11.049 8.197 3.041 3.502 5.289 7.624 6.579 12.078 1.295 4.454 1.603 9.134 0.911 13.722-8.591 43.986-32.297 83.584-67.011 111.928-34.719 28.349-78.254 43.653-123.072 43.274z"></path></g>
</svg>
