<?xml version="1.0" encoding="utf-8"?>
<!-- Generator: Adobe Illustrator 17.0.0, SVG Export Plug-In . SVG Version: 6.00 Build 0)  -->
<!DOCTYPE svg PUBLIC "-//W3C//DTD SVG 1.1//EN" "http://www.w3.org/Graphics/SVG/1.1/DTD/svg11.dtd">
<svg version="1.1" id="Layer_1" xmlns="http://www.w3.org/2000/svg" xmlns:xlink="http://www.w3.org/1999/xlink" x="0px" y="0px"
	 width="1025px" height="1024px" viewBox="0 0 1025 1024" enable-background="new 0 0 1025 1024" xml:space="preserve">
<g><path d="M853.344 234.667h-682.667c-5.658 0-11.084-2.248-15.085-6.248s-6.248-9.427-6.248-15.085c0-5.658 2.248-11.084 6.248-15.085s9.427-6.248 15.085-6.248h682.667c5.658 0 11.085 2.248 15.085 6.248s6.25 9.427 6.25 15.085c0 5.658-2.25 11.084-6.25 15.085s-9.427 6.248-15.085 6.248zM746.678 512c0-2.803-0.55-5.578-1.622-8.166s-2.643-4.941-4.624-6.922c-1.981-1.981-4.333-3.552-6.922-4.624s-5.363-1.622-8.166-1.622h-426.667c-5.658 0-11.084 2.25-15.085 6.25s-6.248 9.427-6.248 15.085c0 5.658 2.247 11.085 6.248 15.085s9.427 6.25 15.085 6.25h426.667c2.803 0 5.578-0.55 8.166-1.622s4.941-2.643 6.922-4.624c1.981-1.981 3.552-4.333 4.624-6.922s1.622-5.363 1.622-8.166zM416.010 789.334c-5.658 0-11.085 2.246-15.085 6.246s-6.246 9.427-6.246 15.085c0 5.658 2.246 11.085 6.246 15.085 4 4.003 9.427 6.25 15.085 6.25h192c5.658 0 11.085-2.246 15.085-6.25 4.003-4 6.25-9.427 6.25-15.085s-2.246-11.085-6.25-15.085c-4-4-9.427-6.246-15.085-6.246h-192z"></path></g>
</svg>
