<svg width="1025" height="1024" xmlns="http://www.w3.org/2000/svg">
 <g>
  <title>background</title>
  <rect x="-1" y="-1" width="802" height="602" id="canvas_background" fill="none"/>
 </g>

 <g>
  <title>Layer 1</title>
  <g stroke="null" id="svg_1">
   <path stroke="null" id="svg_2" d="m889.56816,428.67282c-2.98935,-3.94981 -7.66555,-6.22111 -12.56727,-6.22111l-115.6448,0l0,-53.27553c0,-8.74273 -7.06443,-15.79882 -15.79882,-15.79882l-316.8699,0c-8.74273,0 -15.79882,7.06443 -15.79882,15.79882c0,8.74273 7.06443,15.79882 15.79882,15.79882l300.96548,0l0,51.71288c0,0.47598 -0.35907,0.96029 -0.35907,1.55316l0,232.70902l-521.44691,0.00836l0,-63.92123c0,-8.74273 -7.06443,-15.79882 -15.79882,-15.79882c-8.74273,0 -15.79882,7.06443 -15.79882,15.79882l0,174.89731c0,8.74273 7.06443,15.79882 15.79882,15.79882l70.39416,0c7.18136,27.17219 31.72333,47.40543 61.05031,47.40543s53.99379,-20.23282 61.05031,-47.40543l431.32187,0c7.18136,27.17219 31.72333,47.40543 61.05031,47.40543s53.99379,-20.23282 61.05031,-47.40543l70.26803,0c8.74273,0 15.79882,-7.06443 15.79882,-15.79882l0.00836,-171.66726c0,-3.47375 -1.19409,-6.82223 -3.23155,-9.57792l-131.24083,-172.01649zm-566.10327,384.86985c-17.47733,0 -31.72333,-14.24579 -31.72333,-31.72333c0,-17.47733 14.24579,-31.72333 31.72333,-31.72333s31.72333,14.24579 31.72333,31.72333c-0.11691,17.6026 -14.24579,31.72333 -31.72333,31.72333zm405.81922,-47.40543l-344.76677,0c-7.06443,-27.29831 -31.72333,-47.64699 -61.1743,-47.64699s-54.10923,20.34975 -61.1743,47.64699l-54.33582,0l0,-63.44666l521.46829,0l-0.0171,63.44666zm97.32265,-312.08148l42.49515,0l107.01708,140.42063l-149.51223,0.00836l0,-140.42899zm50.16091,359.49546c-17.47733,0 -31.72333,-14.24579 -31.72333,-31.72333c0,-17.47733 14.24579,-31.72333 31.72333,-31.72333s31.72333,14.24579 31.72333,31.72333c0,17.6026 -14.24579,31.72333 -31.72333,31.72333zm115.51867,-47.40543l-54.35293,0c-7.06443,-27.29831 -31.72333,-47.64699 -61.1743,-47.64699s-54.10923,20.34975 -61.1743,47.64699l-54.35293,0l0.0167,-312.08148l33.63443,0l0,156.21817c0,8.74273 7.06443,15.79882 15.79882,15.79882l181.47926,0l0.00836,140.06791l0.11689,-0.00342z"/>
   <path stroke="null" id="svg_3" d="m381.03291,369.30914c0,-8.74273 -7.06443,-15.79882 -15.79882,-15.79882c-8.74273,0 -15.79882,7.06443 -15.79882,15.79882c0,87.51278 -71.34543,158.61452 -158.85608,158.61452c-87.62822,0 -158.97365,-71.11242 -158.97365,-158.61452c0,-87.62822 71.34543,-158.85608 158.97365,-158.85608c51.59744,0 98.8853,25.14352 128.21228,65.71689l-34.36124,-9.32739c-8.50074,-2.2713 -17.1182,2.7557 -19.3895,11.13096c-2.2713,8.50074 2.63043,17.1182 11.13096,19.3895l69.19064,18.79671c1.31936,0.35907 2.7557,0.60123 4.1918,0.60123c2.7557,0 5.38591,-0.71814 7.89941,-2.03748c2.87263,-1.67843 4.91006,-4.30873 6.22111,-7.29829c1.19409,-1.91223 1.91223,-4.06653 2.2713,-6.22111l17.71953,-65.12475c2.2713,-8.38381 -2.63043,-17.1182 -11.13096,-19.3895c-8.50074,-2.39657 -17.1182,2.7557 -19.3895,11.13096l-8.25854,30.52836c-35.19708,-49.08352 -92.05324,-79.48789 -154.30707,-79.48789c-105.10598,0 -190.57941,85.47343 -190.57941,190.57941c0,104.98841 85.47343,190.33785 190.57941,190.33785c104.97986,-0.12525 190.45542,-85.48198 190.45542,-190.47252l-0.00192,0.00314z"/>
   <path stroke="null" id="svg_4" d="m190.45777,232.3473c-8.74273,0 -15.79882,7.06443 -15.79882,15.79882l0,121.02964c0,8.74273 7.06443,15.79882 15.79882,15.79882l102.70963,0c8.74273,0 15.79882,-7.06443 15.79882,-15.79882c0,-8.74273 -7.06443,-15.79882 -15.79882,-15.79882l-86.90996,0l0,-105.22355c0,-8.74273 -7.06443,-15.80715 -15.79882,-15.80715l-0.00086,0.00107z"/>
  </g>
 </g>
</svg>